<svg width="100" height="61" viewBox="0 0 100 61" fill="none" xmlns="http://www.w3.org/2000/svg">
<path d="M36.7123 1.4118C37.9833 0.980542 39.5643 0.503078 40.1998 0.333655C40.8353 0.164233 41.6413 0.0256144 41.9823 0.0102124C42.3543 -0.00518967 42.6953 0.0872226 42.8348 0.241243C43.0363 0.456872 43.0208 0.51848 42.6798 0.872727C42.4628 1.08836 41.4243 1.79685 40.3548 2.47454C39.2853 3.13683 37.7198 4.18417 36.8673 4.81565C36.0147 5.44714 34.4802 6.6793 33.4572 7.58802C32.4342 8.48134 31.1322 9.7289 30.5742 10.345C30.0162 10.9765 29.1017 12.07 28.5437 12.7939C27.9857 13.5178 27.2262 14.596 26.8697 15.1812C26.4977 15.7819 25.8621 16.9525 25.4591 17.7996C25.0561 18.6467 24.5446 19.8943 24.3276 20.5719C24.1106 21.2496 23.8781 22.3432 23.8006 23.0055C23.7386 23.6678 23.7386 24.9769 23.8006 25.9319C23.8781 27.01 24.0641 28.1806 24.3121 29.0431C24.5291 29.7978 24.9786 30.9837 25.2886 31.6614C25.6141 32.3391 26.1877 33.3402 26.5597 33.8947C26.9317 34.4492 27.7687 35.4195 28.4042 36.0664C29.0552 36.6979 30.1092 37.5912 30.7447 38.0379C31.3802 38.4845 32.4497 39.116 33.1007 39.4549C33.7672 39.7783 35.1312 40.3328 36.1233 40.6716C37.1308 41.0259 38.9288 41.5341 40.1223 41.8114C41.3158 42.104 42.9278 42.4429 43.6873 42.5815C44.4468 42.7355 45.4078 42.9049 45.8108 42.9819C46.2294 43.0743 46.7719 43.2438 47.0199 43.367C47.2679 43.4902 47.6244 43.7828 47.7949 44.0293C47.9964 44.2757 48.1204 44.6916 48.1204 45.0612C48.1204 45.6003 48.0274 45.7697 47.3764 46.3704C46.9734 46.7554 46.1518 47.4485 45.5473 47.926C44.7568 48.5421 44.3538 49.0041 44.0283 49.6202C43.7493 50.1593 43.6098 50.6984 43.6098 51.145C43.6098 51.5917 43.7493 52.1307 44.0283 52.6698C44.2763 53.1319 44.7413 53.7326 45.0823 54.0098C45.4233 54.2716 45.9968 54.6413 46.3534 54.8261C46.7254 54.9955 47.4229 55.2574 47.9034 55.3806C48.3994 55.5038 49.4379 55.6116 50.1974 55.6116C51.0499 55.6116 51.9799 55.5038 52.5999 55.3344C53.1579 55.1958 54.0104 54.8261 54.5219 54.5335C55.0179 54.2408 55.6689 53.6864 55.9634 53.3013C56.258 52.9163 56.568 52.331 56.661 51.9921C56.7385 51.6533 56.7694 51.068 56.7229 50.683C56.6609 50.2979 56.4439 49.6972 56.2424 49.343C56.0254 48.9733 55.4209 48.3572 54.8784 47.9568C54.3514 47.5563 53.5454 46.8787 53.0959 46.4474C52.3829 45.7851 52.2744 45.6003 52.2899 45.1074C52.2899 44.784 52.4294 44.3065 52.5999 44.0601C52.7704 43.8136 53.1269 43.4902 53.3749 43.367C53.6229 43.2438 54.7699 42.9665 55.8859 42.7509C57.0175 42.5353 58.7535 42.181 59.73 41.9654C60.7065 41.7498 62.458 41.2723 63.605 40.8872C64.752 40.5176 66.2245 39.9631 66.8601 39.6551C67.4956 39.3624 68.6116 38.7156 69.3246 38.2381C70.0531 37.7606 71.1381 36.8673 71.7426 36.282C72.3626 35.6968 73.1376 34.8188 73.4786 34.3568C73.8196 33.8947 74.3466 33.063 74.6566 32.5085C74.9666 31.9541 75.4006 31.0145 75.6176 30.4293C75.8501 29.844 76.1601 28.7658 76.3151 28.0419C76.4701 27.318 76.6562 26.1013 76.7026 25.3466C76.7802 24.3455 76.7491 23.5908 76.5631 22.6512C76.4391 21.9273 76.1756 20.8954 75.9896 20.3409C75.8191 19.7864 75.3386 18.6467 74.9356 17.7996C74.5326 16.9525 73.8351 15.6741 73.3701 14.9502C72.9206 14.2263 72.0526 13.0249 71.4326 12.2548C70.8126 11.5001 69.5106 10.0986 68.5496 9.14363C67.5731 8.1887 66.2245 6.95654 65.5425 6.38666C64.8605 5.83219 63.605 4.87726 62.7525 4.26118C61.8845 3.6605 60.598 2.82879 59.885 2.39753C59.172 1.98167 58.3195 1.36559 57.994 1.05755C57.498 0.564686 57.436 0.426068 57.591 0.241243C57.6995 0.102625 58.025 -0.00518967 58.2885 0.0102124C58.5675 0.0102124 59.482 0.179635 60.3035 0.395264C61.1405 0.59549 62.768 1.08836 63.915 1.47341C65.062 1.87386 66.2555 2.32052 66.55 2.47454C66.8446 2.61316 67.2476 2.78258 67.4336 2.84419C67.7281 2.9212 67.7746 2.8904 67.7126 2.62856C67.6661 2.45914 67.7281 2.21271 67.8211 2.08949C67.9606 1.93547 68.2706 1.84306 68.7201 1.84306C69.1076 1.85846 69.9446 1.99708 70.5801 2.1511C71.2156 2.32052 72.4091 2.67477 73.2151 2.952C74.0211 3.21384 75.4626 3.79912 76.3926 4.23037C77.3227 4.67703 78.6867 5.33932 79.4152 5.70897C80.1437 6.09402 80.7637 6.41746 80.8102 6.43287C80.8567 6.46367 80.8877 6.24804 80.8877 5.97081C80.8877 5.52415 80.9342 5.47794 81.4302 5.43173C81.7247 5.40093 82.3912 5.53955 82.9027 5.72437C83.4142 5.9092 84.4992 6.38666 85.3052 6.78711C86.1112 7.18757 87.3047 7.81905 87.9403 8.2041C88.5758 8.57375 89.8003 9.37466 90.6528 9.97534C91.5053 10.576 92.7608 11.5617 93.4428 12.1624C94.1248 12.7785 95.1323 13.7642 95.6593 14.3803C96.2018 14.9964 96.9768 15.9821 97.3643 16.5674C97.7674 17.1527 98.3099 18.0922 98.5889 18.6467C98.8834 19.2012 99.2709 20.1869 99.4879 20.8492C99.7359 21.6193 99.9064 22.5896 99.9684 23.6216C100.03 24.5611 99.9994 25.6546 99.8909 26.3477C99.7824 26.9792 99.4879 28.0265 99.2089 28.658C98.9299 29.2895 98.2944 30.4447 97.7829 31.1994C97.2249 32.0619 96.1863 33.2632 95.0858 34.3722C93.7993 35.6506 92.7763 36.4977 91.5053 37.3294C90.5288 37.9763 88.9168 38.885 87.9403 39.347C86.9637 39.8091 85.3517 40.456 84.3752 40.7948C83.3987 41.1337 81.7557 41.6574 80.7327 41.95C79.7097 42.258 77.4777 42.8587 75.7726 43.2746C74.0676 43.7058 71.6961 44.2603 70.5026 44.5221C69.3091 44.784 66.4881 45.3847 64.225 45.8467C61.962 46.3088 59.854 46.7554 59.5285 46.8324C59.2185 46.9249 58.924 47.0943 58.8775 47.2175C58.831 47.3407 58.831 47.5409 58.8775 47.6488C58.924 47.7412 59.699 48.4651 60.598 49.2198C61.6055 50.0515 62.365 50.837 62.5355 51.1912C62.706 51.4993 62.83 52.0075 62.83 52.3002C62.83 52.5928 62.737 53.0241 62.613 53.2705C62.5045 53.5015 62.148 53.9174 61.838 54.1946C61.528 54.4565 60.35 55.1341 59.234 55.6732C58.1025 56.2123 56.7539 56.967 56.2424 57.3674C55.7309 57.7525 54.8939 58.4302 54.3824 58.846C53.8709 59.2773 53.0649 59.7702 52.5999 59.9396C52.1349 60.109 51.2669 60.2938 50.6624 60.34C49.9184 60.4016 49.2674 60.34 48.5699 60.1706C48.0119 60.032 47.2524 59.724 46.8649 59.5083C46.4774 59.2773 45.7644 58.7228 45.2683 58.2762C44.7878 57.8295 43.9818 57.198 43.5013 56.89C43.0053 56.5819 41.8428 55.9659 40.8973 55.5346C39.9518 55.1033 38.9288 54.5027 38.5878 54.21C38.2623 53.9174 37.8903 53.5015 37.7818 53.2705C37.6578 53.0241 37.5648 52.5928 37.5648 52.3002C37.5648 52.0075 37.6888 51.4993 37.8593 51.1912C38.0298 50.837 38.8048 50.0361 39.7503 49.2352C40.6338 48.4805 41.4088 47.772 41.4863 47.6642C41.5483 47.5409 41.5638 47.3407 41.5173 47.2175C41.4708 47.0943 41.3158 46.9557 41.1763 46.9095C41.0213 46.8787 38.9133 46.432 36.4798 45.9237C34.0462 45.4155 31.0857 44.784 29.8922 44.5221C28.6987 44.2603 26.1877 43.6596 24.3121 43.1976C22.4366 42.7355 20.2046 42.1348 19.3521 41.8884C18.4996 41.6265 16.9961 41.1337 16.0196 40.7948C15.043 40.456 13.4 39.7783 12.377 39.2854C11.354 38.808 9.75749 37.8839 8.81198 37.2678C7.86647 36.6363 6.45596 35.5119 5.64995 34.7418C4.85945 33.9871 3.75893 32.7704 3.21643 32.0465C2.65842 31.3226 1.89891 30.1058 1.52691 29.3511C1.13941 28.5964 0.720901 27.4413 0.5814 26.8098C0.395398 25.9627 0.348899 25.1772 0.4109 23.8834C0.4729 22.451 0.581401 21.8349 0.984405 20.649C1.24791 19.8481 1.74391 18.6929 2.06941 18.1076C2.39492 17.5223 3.01492 16.5366 3.44893 15.9513C3.88293 15.3661 4.92145 14.1801 5.75845 13.3484C6.57996 12.5167 7.81997 11.3923 8.50198 10.8687C9.18399 10.345 10.331 9.52868 11.0595 9.05122C11.788 8.58915 13.245 7.74204 14.3145 7.18757C15.384 6.63309 16.7326 6.00161 17.3371 5.78598C17.9726 5.55495 18.6546 5.40093 18.9646 5.43173C19.4606 5.47794 19.5071 5.52415 19.5071 6.46367L21.0571 5.64736C21.9096 5.2007 23.4131 4.47681 24.3896 4.04555C25.3661 3.61429 26.9317 3.02901 27.8772 2.73638C28.8227 2.44374 29.9077 2.12029 30.3262 2.02788C30.7292 1.93547 31.3492 1.85846 31.7057 1.85846C32.1242 1.84306 32.4497 1.93547 32.5582 2.08949C32.6667 2.21271 32.7287 2.45914 32.6822 2.62856C32.6202 2.8904 32.6667 2.9212 32.9457 2.84419C33.1472 2.78258 33.5502 2.61316 33.8447 2.47454C34.1392 2.32052 35.4257 1.84306 36.7123 1.4118Z" fill="#293843"/>
<path d="M24.6222 6.61756C25.7227 6.00148 27.4742 5.12356 28.4972 4.6769C29.5202 4.24565 30.4037 3.876 30.4657 3.8606C30.5432 3.8606 30.5897 3.8914 30.5897 3.93761C30.5897 3.98381 29.8457 4.43047 28.9312 4.92334C28.0012 5.4162 26.4202 6.38653 25.3972 7.04882C24.3742 7.72651 22.8396 8.83546 21.9871 9.51315C21.1346 10.2062 19.7396 11.4846 18.8716 12.3625C18.0036 13.225 16.8876 14.5034 16.3916 15.1811C15.8801 15.8588 15.1516 17.0293 14.7486 17.7994C14.3611 18.5696 13.8496 19.7555 13.6326 20.464C13.4156 21.1571 13.1676 22.3277 13.0745 23.067C12.9815 23.9911 12.9815 24.7458 13.09 25.4235C13.1831 25.9779 13.4156 26.9175 13.6326 27.5027C13.8496 28.088 14.2681 29.0275 14.5626 29.582C14.8726 30.1365 15.4461 31.0298 15.8336 31.5843C16.2211 32.1388 17.2441 33.2785 18.0966 34.1256C18.9646 34.9727 20.4371 36.1895 21.3671 36.8518C22.3126 37.4987 24.1572 38.5922 25.4747 39.2853C26.7922 39.9784 27.7377 40.4867 27.5672 40.4405C27.3967 40.3789 26.9782 40.2248 26.6372 40.1016C26.2962 39.9784 25.2112 39.5163 24.2347 39.0697C23.2581 38.623 21.7546 37.8683 20.9021 37.3755C20.0496 36.8826 18.7941 36.0971 18.1121 35.6196C17.4456 35.1268 16.2521 34.1102 15.4771 33.3555C14.7021 32.6008 13.7721 31.5535 13.4311 31.0452C13.09 30.5369 12.625 29.7822 12.4235 29.351C12.2065 28.9351 11.881 28.088 11.695 27.5027C11.509 26.9175 11.323 25.8393 11.261 25.1154C11.2145 24.3761 11.2455 23.2364 11.354 22.4971C11.4625 21.7732 11.726 20.6026 11.9585 19.8787C12.1755 19.1548 12.6405 18.0459 12.966 17.4144C13.2916 16.7829 13.9581 15.7048 14.4386 15.0425C14.9191 14.3802 15.9111 13.225 16.6396 12.5011C17.3681 11.7618 18.5151 10.7299 19.1971 10.1908C19.8791 9.65177 20.9176 8.88166 21.5221 8.48121C22.1266 8.08076 23.5217 7.24905 24.6222 6.61756Z" fill="#FCFCFB"/>
<path d="M71.4636 4.92334C70.5491 4.43047 69.8051 3.96841 69.8206 3.9222C69.8206 3.876 69.9911 3.8914 70.1616 3.95301C70.3476 4.01462 71.3086 4.41507 72.2851 4.86173C73.2616 5.30839 74.7342 6.03228 75.5402 6.47894C76.3462 6.9256 77.4932 7.60329 78.0977 7.98834C78.7022 8.35799 79.8337 9.1743 80.6397 9.77498C81.4457 10.3757 82.7012 11.4538 83.4297 12.1777C84.1582 12.9016 85.1503 14.0105 85.6308 14.642C86.0958 15.2735 86.7468 16.213 87.0413 16.7213C87.3513 17.2296 87.7853 18.0921 88.0023 18.6466C88.2348 19.201 88.5603 20.233 88.7463 20.9569C89.0098 21.958 89.0873 22.7281 89.0873 24.1913C89.1028 25.5467 89.0253 26.4092 88.8238 27.1177C88.6843 27.6722 88.2813 28.6733 87.9558 29.351C87.6148 30.0287 87.0568 30.9682 86.7003 31.4303C86.3283 31.8923 85.7548 32.5854 85.3983 32.9397C85.0573 33.3093 84.2822 34.0178 83.6777 34.4953C83.0732 34.9727 82.2362 35.6196 81.8177 35.9123C81.3837 36.2049 80.4537 36.8056 79.7252 37.2368C78.9967 37.6681 77.7102 38.3458 76.8577 38.7462C76.0052 39.1467 74.7807 39.6704 74.1451 39.9168C73.5096 40.1632 72.9516 40.3635 72.9051 40.3635C72.8586 40.3635 73.6026 39.963 74.5327 39.4855C75.4627 39.0081 76.7647 38.2996 77.4002 37.9145C78.0357 37.5141 79.0897 36.8056 79.7252 36.3435C80.3607 35.8661 81.3682 35.0343 81.9572 34.4953C82.5462 33.9562 83.5227 32.8781 84.1117 32.1234C84.7008 31.3687 85.4138 30.3213 85.7083 29.813C85.9873 29.3048 86.4368 28.319 86.7003 27.6106C86.9483 26.9175 87.2273 25.9163 87.3203 25.3927C87.4133 24.7612 87.3978 23.9449 87.3048 23.0361C87.2118 22.2814 86.9638 21.0955 86.7468 20.4178C86.5298 19.7401 86.1113 18.6928 85.8168 18.1075C85.5068 17.5222 85.0108 16.6443 84.7163 16.1822C84.4062 15.7202 83.7552 14.8423 83.2747 14.257C82.7942 13.6717 81.7092 12.5165 80.8722 11.7002C80.0197 10.8839 78.7797 9.79038 78.0977 9.25131C77.4157 8.71224 76.0207 7.72651 74.9977 7.04882C73.9746 6.38653 72.3936 5.4162 71.4636 4.92334Z" fill="#FCFCFB"/>
<path d="M14.2371 9.48234C15.1826 8.86626 16.2211 8.21938 16.5621 8.03455C16.9031 7.84973 17.2131 7.71111 17.2596 7.71111C17.3061 7.72651 17.1666 7.84973 16.9496 7.98834C16.7481 8.12696 15.9111 8.74305 15.0896 9.35913C14.2836 9.95981 13.059 10.9455 12.377 11.5462C11.695 12.1469 10.6255 13.2096 10.0055 13.9027C9.38551 14.6112 8.533 15.674 8.13 16.2592C7.7115 16.8445 7.06049 17.9535 6.67299 18.7236C6.28548 19.4937 5.82048 20.6334 5.63448 21.2649C5.46397 21.8964 5.26247 23.0053 5.21597 23.7292C5.13847 24.7766 5.20047 25.3002 5.46397 26.3476C5.64998 27.0715 6.09948 28.2882 6.47148 29.0429C6.82799 29.7976 7.55649 30.9836 8.068 31.6613C8.5795 32.339 9.55601 33.4171 10.238 34.0486C10.92 34.6801 12.0825 35.6196 12.842 36.1279C13.6016 36.6362 15.0896 37.4833 16.1591 38.0223C17.2441 38.5614 17.9416 38.9465 17.7246 38.9003C17.5076 38.8386 16.8876 38.6076 16.3296 38.392C15.7716 38.1918 14.6246 37.6681 13.7721 37.2522C12.9195 36.8364 11.664 36.1125 10.982 35.6658C10.3 35.2192 9.19951 34.3721 8.5175 33.7868C7.851 33.2169 6.88999 32.185 6.37848 31.5073C5.86698 30.8296 5.26247 29.9209 5.04547 29.505C4.82847 29.0737 4.50296 28.2882 4.31696 27.7338C4.13096 27.1793 3.88296 26.1782 3.77446 25.5005C3.66596 24.8074 3.61946 23.7754 3.68146 23.1132C3.72796 22.4817 3.91396 21.4651 4.09996 20.8799C4.27046 20.2946 4.71997 19.2472 5.06097 18.5696C5.41747 17.8919 6.23898 16.6751 6.88999 15.8742C7.52549 15.0733 8.5175 13.9951 9.06001 13.4869C9.61801 12.9786 10.61 12.1161 11.292 11.577C11.974 11.038 13.2916 10.0984 14.2371 9.48234Z" fill="#FCFCFB"/>
<path d="M84.7938 8.98948C83.8792 8.32719 83.1352 7.77272 83.1352 7.74191C83.1352 7.72651 83.4452 7.84973 83.8017 8.03455C84.1582 8.21938 85.2278 8.86626 86.1578 9.48234C87.0878 10.0984 88.6378 11.2228 89.5678 11.9775C90.4978 12.7322 91.7378 13.8565 92.3113 14.4572C92.9003 15.0733 93.7218 16.0744 94.1558 16.6751C94.5899 17.2912 95.1789 18.2461 95.4579 18.8006C95.7369 19.3551 96.1089 20.2484 96.2794 20.8028C96.4499 21.3573 96.6359 22.2968 96.6979 22.8821C96.7599 23.4982 96.7444 24.5301 96.6359 25.2694C96.5429 25.9933 96.2949 27.1023 96.0779 27.7338C95.8609 28.3653 95.4579 29.274 95.2099 29.736C94.9464 30.1981 94.3574 31.076 93.9078 31.6613C93.4583 32.2466 92.6523 33.1245 92.1098 33.602C91.5673 34.0794 90.5908 34.8495 89.9553 35.2962C89.3198 35.7582 87.9558 36.5591 86.9328 37.0828C85.9098 37.5911 84.6543 38.1918 84.1427 38.392C83.6312 38.6076 82.9957 38.8078 82.7477 38.8695C82.4997 38.9311 83.0577 38.5922 83.9877 38.1456C84.9178 37.6989 86.4213 36.8364 87.3203 36.2511C88.2193 35.6658 89.4903 34.6647 90.1723 34.0332C90.8388 33.4017 91.8153 32.339 92.3268 31.6613C92.8228 30.9836 93.5513 29.7976 93.9233 29.0429C94.2953 28.2882 94.7449 27.1023 94.9154 26.4246C95.0859 25.7469 95.2254 24.7766 95.2254 24.2683C95.2254 23.76 95.1169 22.8975 95.0083 22.3431C94.8843 21.7886 94.6674 21.0031 94.5279 20.5718C94.3884 20.156 93.9853 19.2472 93.6443 18.5696C93.3033 17.8919 92.6833 16.8445 92.2803 16.2592C91.8618 15.674 90.9783 14.5958 90.3273 13.8719C89.6763 13.148 88.5448 12.0237 87.8008 11.3768C87.0723 10.7145 85.7238 9.63636 84.7938 8.98948Z" fill="#FCFCFB"/>
</svg>
