<svg width="26" height="16" viewBox="0 0 26 16" fill="none" xmlns="http://www.w3.org/2000/svg">
<path fill-rule="evenodd" clip-rule="evenodd" d="M3.81964 0H0.975243C0.162549 0 0 0.396464 0 0.833516C0 1.61423 0.964323 5.48615 4.49004 10.6071C6.84052 14.1043 10.1521 16 13.1656 16C14.9736 16 15.1973 15.5789 15.1973 14.8537V12.2105C15.1973 11.3684 15.3686 11.2003 15.9411 11.2003C16.363 11.2003 17.0862 11.4189 18.7738 13.1051C20.7024 15.1035 21.0203 16 22.1051 16H24.9495C25.7622 16 26.1686 15.5789 25.9342 14.748C25.6777 13.9199 24.7569 12.7183 23.535 11.2941C22.872 10.4822 21.8776 9.60792 21.5763 9.17069C21.1544 8.60867 21.2749 8.35882 21.5763 7.85928C21.5763 7.85928 25.0417 2.80076 25.4034 1.08345C25.5841 0.458863 25.4034 0 24.5432 0H21.6988C20.9756 0 20.6421 0.396464 20.4613 0.833516C20.4613 0.833516 19.0148 4.4869 16.9657 6.86004C16.3027 7.54695 16.0014 7.76556 15.6397 7.76556C15.4589 7.76556 15.1972 7.54695 15.1972 6.92253V1.08345C15.1972 0.333979 14.9874 0 14.3846 0H9.91477C9.46286 0 9.19099 0.347789 9.19099 0.677473C9.19099 1.38787 10.2156 1.55175 10.3212 3.55015V7.89053C10.3212 8.84211 10.1553 9.01465 9.79371 9.01465C8.82943 9.01465 6.48383 5.34493 5.09267 1.14585C4.82007 0.329685 4.54659 0 3.81964 0Z" fill="#2684E5"/>
</svg>
