<svg width="23" height="15" viewBox="0 0 23 15" fill="none" xmlns="http://www.w3.org/2000/svg">
<path fill-rule="evenodd" clip-rule="evenodd" d="M3.37891 0.735352H0.862715C0.143793 0.735352 0 1.0706 0 1.44016C0 2.10033 0.853055 5.37437 3.97195 9.70457C6.05122 12.6617 8.9807 14.2648 11.6465 14.2648C13.2459 14.2648 13.4438 13.9087 13.4438 13.2955V11.0604C13.4438 10.3484 13.5953 10.2062 14.1017 10.2062C14.475 10.2062 15.1147 10.3911 16.6076 11.8169C18.3137 13.5067 18.5949 14.2648 19.5545 14.2648H22.0707C22.7897 14.2648 23.1491 13.9087 22.9418 13.2061C22.7149 12.5059 21.9003 11.4898 20.8194 10.2855C20.2329 9.59897 19.3533 8.85969 19.0867 8.48998C18.7135 8.01474 18.8201 7.80347 19.0867 7.38107C19.0867 7.38107 22.1523 3.10364 22.4722 1.65151C22.6321 1.12336 22.4722 0.735352 21.7113 0.735352H19.1951C18.5553 0.735352 18.2603 1.0706 18.1003 1.44016C18.1003 1.44016 16.8208 4.52943 15.0081 6.53612C14.4216 7.11696 14.1551 7.30182 13.8351 7.30182C13.6752 7.30182 13.4437 7.11696 13.4437 6.58896V1.65151C13.4437 1.01776 13.2581 0.735352 12.7248 0.735352H8.77076C8.37099 0.735352 8.1305 1.02944 8.1305 1.30822C8.1305 1.90892 9.03684 2.04749 9.13028 3.73731V7.40749C9.13028 8.21213 8.98351 8.35804 8.66366 8.35804C7.81065 8.35804 5.73569 5.25496 4.50505 1.70427C4.26391 1.01413 4.02198 0.735352 3.37891 0.735352Z" fill="#989898"/>
</svg>
